#define 1710568317060_width 16
#define 1710568317060_height 16
static char 1710568317060_bits[] = {
  0xE0, 0x03, 0xE0, 0x03, 0xC0, 0x07, 0x60, 0x07, 0x60, 0x07, 0x50, 0x02, 
  0xC0, 0x02, 0x40, 0x01, 0x02, 0x00, 0xFF, 0xFF, 0xFF, 0xFF, 0xFF, 0xBF, 
  0xFF, 0xFD, 0xDF, 0xFF, 0xFF, 0x7F, 0x7F, 0xEF, };
